<svg width="24" height="24" viewBox="0 0 24 24" fill="none" xmlns="http://www.w3.org/2000/svg">
<path fill-rule="evenodd" clip-rule="evenodd" d="M21.03 5.72C21.1705 5.86063 21.2493 6.05125 21.2493 6.25C21.2493 6.44875 21.1705 6.63937 21.03 6.78L9.53 18.28C9.45937 18.3506 9.37535 18.4063 9.28287 18.444C9.1904 18.4817 9.09133 18.5005 8.99148 18.4994C8.89163 18.4983 8.79301 18.4773 8.7014 18.4375C8.60979 18.3978 8.52704 18.3401 8.458 18.268L2.958 12.518C2.88684 12.4475 2.83053 12.3634 2.7924 12.2707C2.75427 12.1781 2.7351 12.0787 2.73601 11.9785C2.73692 11.8783 2.7579 11.7793 2.79771 11.6874C2.83752 11.5954 2.89535 11.5124 2.96779 11.4431C3.04022 11.3739 3.1258 11.3199 3.21946 11.2843C3.31312 11.2487 3.41297 11.2322 3.5131 11.2358C3.61323 11.2394 3.71163 11.2631 3.80247 11.3054C3.89331 11.3477 3.97476 11.4077 4.042 11.482L9.012 16.677L19.97 5.72C20.1106 5.57955 20.3013 5.50066 20.5 5.50066C20.6988 5.50066 20.8894 5.57955 21.03 5.72V5.72Z" fill="#22863A" fill-opacity="0.75"/>
</svg>
