<svg width="24" height="24" viewBox="0 0 24 24" fill="none" xmlns="http://www.w3.org/2000/svg">
<path fill-rule="evenodd" clip-rule="evenodd" d="M5.72 5.72C5.86062 5.57955 6.05125 5.50066 6.25 5.50066C6.44875 5.50066 6.63937 5.57955 6.78 5.72L12 10.94L17.22 5.72C17.2887 5.64631 17.3715 5.58721 17.4635 5.54622C17.5555 5.50523 17.6548 5.48319 17.7555 5.48141C17.8562 5.47963 17.9562 5.49816 18.0496 5.53588C18.143 5.5736 18.2278 5.62974 18.299 5.70096C18.3703 5.77218 18.4264 5.85701 18.4641 5.9504C18.5018 6.04379 18.5204 6.14382 18.5186 6.24452C18.5168 6.34523 18.4948 6.44454 18.4538 6.53654C18.4128 6.62854 18.3537 6.71134 18.28 6.78L13.06 12L18.28 17.22C18.3537 17.2887 18.4128 17.3715 18.4538 17.4635C18.4948 17.5555 18.5168 17.6548 18.5186 17.7555C18.5204 17.8562 18.5018 17.9562 18.4641 18.0496C18.4264 18.143 18.3703 18.2278 18.299 18.299C18.2278 18.3703 18.143 18.4264 18.0496 18.4641C17.9562 18.5018 17.8562 18.5204 17.7555 18.5186C17.6548 18.5168 17.5555 18.4948 17.4635 18.4538C17.3715 18.4128 17.2887 18.3537 17.22 18.28L12 13.06L6.78 18.28C6.63782 18.4125 6.44977 18.4846 6.25547 18.4812C6.06117 18.4777 5.87579 18.399 5.73837 18.2616C5.60096 18.1242 5.52225 17.9388 5.51882 17.7445C5.51539 17.5502 5.58752 17.3622 5.72 17.22L10.94 12L5.72 6.78C5.57955 6.63937 5.50066 6.44875 5.50066 6.25C5.50066 6.05125 5.57955 5.86063 5.72 5.72Z" fill="#D73A49" fill-opacity="0.75"/>
</svg>
