<svg width="24" height="24" viewBox="0 0 24 24" fill="none" xmlns="http://www.w3.org/2000/svg">
<path fill-rule="evenodd" clip-rule="evenodd" d="M7.024 3.75C7.024 2.784 7.808 2 8.774 2H20.25C21.216 2 22 2.784 22 3.75V15.248C22 15.7121 21.8156 16.1572 21.4874 16.4854C21.1592 16.8136 20.7141 16.998 20.25 16.998H8.774C8.30987 16.998 7.86475 16.8136 7.53656 16.4854C7.20837 16.1572 7.024 15.7121 7.024 15.248V3.75V3.75ZM8.774 3.5C8.7077 3.5 8.64411 3.52634 8.59722 3.57322C8.55034 3.62011 8.524 3.6837 8.524 3.75V15.248C8.524 15.387 8.636 15.498 8.774 15.498H20.25C20.3163 15.498 20.3799 15.4717 20.4268 15.4248C20.4737 15.3779 20.5 15.3143 20.5 15.248V3.75C20.5 3.6837 20.4737 3.62011 20.4268 3.57322C20.3799 3.52634 20.3163 3.5 20.25 3.5H8.774V3.5Z" fill="black"/>
<path d="M1.995 10.749C1.99487 10.5191 2.04004 10.2914 2.12792 10.079C2.21581 9.86656 2.34469 9.67353 2.50721 9.51092C2.66973 9.34831 2.86269 9.21931 3.07507 9.13131C3.28746 9.0433 3.5151 8.998 3.745 8.998H5.25C5.44891 8.998 5.63968 9.07702 5.78033 9.21767C5.92098 9.35832 6 9.54909 6 9.748C6 9.94691 5.92098 10.1377 5.78033 10.2783C5.63968 10.419 5.44891 10.498 5.25 10.498H3.745C3.6787 10.498 3.61511 10.5243 3.56822 10.5712C3.52134 10.6181 3.495 10.6817 3.495 10.748L3.5 20.25C3.5 20.388 3.611 20.5 3.75 20.5H13.25C13.3163 20.5 13.3799 20.4737 13.4268 20.4268C13.4737 20.3799 13.5 20.3163 13.5 20.25V18.74C13.5 18.5411 13.579 18.3503 13.7197 18.2097C13.8603 18.069 14.0511 17.99 14.25 17.99C14.4489 17.99 14.6397 18.069 14.7803 18.2097C14.921 18.3503 15 18.5411 15 18.74V20.25C15 20.7141 14.8156 21.1592 14.4874 21.4874C14.1592 21.8156 13.7141 22 13.25 22H3.75C3.28587 22 2.84075 21.8156 2.51256 21.4874C2.18437 21.1592 2 20.7141 2 20.25L1.995 10.749Z" fill="black"/>
<g clip-path="url(#clip0)">
<path fill-rule="evenodd" clip-rule="evenodd" d="M13.6562 5.42188C13.6562 5.30999 13.6118 5.20268 13.5327 5.12356C13.4536 5.04445 13.3463 5 13.2344 5C13.1225 5 13.0152 5.04445 12.9361 5.12356C12.8569 5.20268 12.8125 5.30999 12.8125 5.42188V6.125H12.1094C11.8483 6.125 11.5979 6.22871 11.4133 6.41332C11.2287 6.59792 11.125 6.8483 11.125 7.10938V7.8125H10.4219C10.31 7.8125 10.2027 7.85695 10.1236 7.93606C10.0444 8.01518 10 8.12249 10 8.23438C10 8.34626 10.0444 8.45357 10.1236 8.53269C10.2027 8.6118 10.31 8.65625 10.4219 8.65625H11.125V10.3438H10.4219C10.31 10.3438 10.2027 10.3882 10.1236 10.4673C10.0444 10.5464 10 10.6537 10 10.7656C10 10.8775 10.0444 10.9848 10.1236 11.0639C10.2027 11.1431 10.31 11.1875 10.4219 11.1875H11.125V11.8906C11.125 12.434 11.566 12.875 12.1094 12.875H12.8125V13.5781C12.8125 13.69 12.8569 13.7973 12.9361 13.8764C13.0152 13.9556 13.1225 14 13.2344 14C13.3463 14 13.4536 13.9556 13.5327 13.8764C13.6118 13.7973 13.6562 13.69 13.6562 13.5781V12.875H15.3438V13.5781C15.3438 13.69 15.3882 13.7973 15.4673 13.8764C15.5464 13.9556 15.6537 14 15.7656 14C15.8775 14 15.9848 13.9556 16.0639 13.8764C16.1431 13.7973 16.1875 13.69 16.1875 13.5781V12.875H16.8906C17.1517 12.875 17.4021 12.7713 17.5867 12.5867C17.7713 12.4021 17.875 12.1517 17.875 11.8906V11.1875H18.5781C18.69 11.1875 18.7973 11.1431 18.8764 11.0639C18.9556 10.9848 19 10.8775 19 10.7656C19 10.6537 18.9556 10.5464 18.8764 10.4673C18.7973 10.3882 18.69 10.3438 18.5781 10.3438H17.875V8.65625H18.5781C18.69 8.65625 18.7973 8.6118 18.8764 8.53269C18.9556 8.45357 19 8.34626 19 8.23438C19 8.12249 18.9556 8.01518 18.8764 7.93606C18.7973 7.85695 18.69 7.8125 18.5781 7.8125H17.875V7.10938C17.875 6.8483 17.7713 6.59792 17.5867 6.41332C17.4021 6.22871 17.1517 6.125 16.8906 6.125H16.1875V5.42188C16.1875 5.30999 16.1431 5.20268 16.0639 5.12356C15.9848 5.04445 15.8775 5 15.7656 5C15.6537 5 15.5464 5.04445 15.4673 5.12356C15.3882 5.20268 15.3438 5.30999 15.3438 5.42188V6.125H13.6562V5.42188ZM16.8906 12.0312H12.1094C12.0721 12.0312 12.0363 12.0164 12.0099 11.9901C11.9836 11.9637 11.9688 11.9279 11.9688 11.8906V7.10938C11.9688 7.07208 11.9836 7.03631 12.0099 7.00994C12.0363 6.98357 12.0721 6.96875 12.1094 6.96875H16.8906C16.9279 6.96875 16.9637 6.98357 16.9901 7.00994C17.0164 7.03631 17.0312 7.07208 17.0312 7.10938V11.8906C17.0312 11.9279 17.0164 11.9637 16.9901 11.9901C16.9637 12.0164 16.9279 12.0312 16.8906 12.0312ZM13.2344 7.8125C13.1225 7.8125 13.0152 7.85695 12.9361 7.93606C12.8569 8.01518 12.8125 8.12249 12.8125 8.23438V10.7656C12.8125 10.9985 13.0015 11.1875 13.2344 11.1875H15.7656C15.8775 11.1875 15.9848 11.1431 16.0639 11.0639C16.1431 10.9848 16.1875 10.8775 16.1875 10.7656V8.23438C16.1875 8.12249 16.1431 8.01518 16.0639 7.93606C15.9848 7.85695 15.8775 7.8125 15.7656 7.8125H13.2344ZM13.6562 10.3438V8.65625H15.3438V10.3438H13.6562Z" fill="black"/>
</g>
<defs>
<clipPath id="clip0">
<rect width="9" height="9" fill="white" transform="translate(10 5)"/>
</clipPath>
</defs>
</svg>
